<?xml version="1.0" standalone="no"?>
<!DOCTYPE svg PUBLIC "-//W3C//DTD SVG 20010904//EN"
 "http://www.w3.org/TR/2001/REC-SVG-20010904/DTD/svg10.dtd">
<svg version="1.0" xmlns="http://www.w3.org/2000/svg"
 width="227.000000pt" height="222.000000pt" viewBox="0 0 227.000000 222.000000"
 preserveAspectRatio="xMidYMid meet">

<g transform="translate(0.000000,222.000000) scale(0.100000,-0.100000)"
fill="#000000" stroke="none">
<path d="M590 2046 c0 -2 25 -18 56 -36 45 -25 59 -29 66 -18 7 10 11 9 23 -6
20 -26 29 -15 13 15 -10 19 -20 23 -44 21 -18 -2 -49 4 -69 12 -40 17 -45 18
-45 12z"/>
<path d="M746 1945 c4 -8 10 -15 14 -15 4 0 10 7 14 15 4 10 -1 15 -14 15 -13
0 -18 -5 -14 -15z"/>
<path d="M488 1920 c-6 -42 -3 -52 22 -68 18 -11 20 -10 20 9 0 13 -8 23 -21
26 -13 4 -16 8 -10 13 8 4 9 15 3 30 -9 23 -9 23 -14 -10z"/>
<path d="M775 1930 c-3 -5 7 -21 21 -35 16 -17 24 -20 20 -10 -3 9 -6 23 -6
30 0 16 -27 28 -35 15z"/>
<path d="M627 1889 c7 -7 15 -10 18 -7 3 3 -2 9 -12 12 -14 6 -15 5 -6 -5z"/>
<path d="M685 1866 c17 -7 36 -20 44 -29 7 -10 18 -17 24 -17 5 0 3 8 -6 18
-10 10 -14 22 -10 26 4 4 -1 4 -11 0 -12 -5 -17 -4 -13 3 4 6 -7 10 -26 11
l-32 1 30 -13z"/>
<path d="M1686 1851 c-15 -17 -15 -19 -1 -25 22 -8 -1 -43 -37 -55 -29 -10
-30 -34 -2 -45 8 -3 14 -15 14 -26 0 -12 4 -18 10 -15 6 4 8 16 4 27 -4 14 -2
18 5 14 6 -4 11 -2 11 3 0 6 9 11 20 11 26 0 37 27 22 51 -7 10 -12 26 -12 34
0 8 -4 15 -10 15 -5 0 -7 7 -4 15 8 20 1 19 -20 -4z"/>
<path d="M1791 1854 c11 -14 11 -18 -5 -30 -11 -7 -22 -11 -26 -9 -4 2 -7 -2
-7 -9 0 -13 47 -10 47 3 0 3 3 16 6 27 4 14 0 23 -12 28 -15 6 -15 4 -3 -10z"/>
<path d="M1586 1807 c-7 -29 -3 -31 18 -8 14 16 15 19 2 24 -9 4 -16 -2 -20
-16z"/>
<path d="M779 1806 c22 -27 48 -38 48 -20 0 7 -4 15 -9 15 -19 3 -24 5 -38 14
-13 8 -13 7 -1 -9z"/>
<path d="M598 1803 c7 -3 16 -2 19 1 4 3 -2 6 -13 5 -11 0 -14 -3 -6 -6z"/>
<path d="M844 1762 c3 -6 1 -14 -5 -18 -6 -3 -15 0 -20 7 -7 11 -11 11 -21 1
-10 -10 -10 -15 2 -23 8 -6 11 -12 5 -15 -31 -14 -37 -22 -28 -39 7 -12 13
-14 17 -6 12 18 36 13 36 -8 0 -11 -4 -21 -10 -23 -6 -2 -6 -9 0 -18 8 -12 11
-12 28 3 18 16 20 16 26 2 3 -9 11 -13 17 -10 6 4 8 14 4 22 -3 9 2 24 11 34
20 22 9 46 -12 28 -23 -19 -43 5 -26 31 10 16 9 21 -9 31 -13 7 -19 7 -15 1z"/>
<path d="M1550 1755 c-7 -8 -15 -13 -19 -11 -3 2 -7 -17 -7 -43 -2 -34 0 -40
5 -21 5 14 16 40 25 58 18 34 16 41 -4 17z"/>
<path d="M615 1711 c-26 -5 -22 -8 38 -20 37 -7 70 -11 73 -9 2 3 -14 8 -36
12 -23 4 -38 11 -35 16 7 11 5 11 -40 1z"/>
<path d="M1641 1704 c0 -11 3 -14 6 -6 3 7 2 16 -1 19 -3 4 -6 -2 -5 -13z"/>
<path d="M1586 1662 c-3 -6 -1 -14 5 -17 15 -10 25 3 12 16 -7 7 -13 7 -17 1z"/>
<path d="M1490 1644 c-9 -10 -9 -14 -1 -14 6 0 11 -9 11 -21 0 -17 -4 -20 -24
-15 -31 8 -40 -3 -19 -26 9 -11 11 -18 5 -18 -7 0 -12 -7 -12 -15 0 -18 12
-19 27 -4 8 8 15 6 24 -9 9 -14 17 -17 28 -12 9 5 23 11 32 13 22 7 31 67 10
67 -12 0 -12 3 -3 12 22 22 14 41 -13 34 -14 -4 -25 -2 -25 3 0 16 -28 20 -40
5z m70 -94 c7 -14 7 -20 0 -20 -5 0 -10 6 -10 13 0 9 -3 8 -9 -2 -6 -9 -11
-10 -15 -2 -8 12 1 31 14 31 5 0 14 -9 20 -20z"/>
<path d="M1110 1610 c0 -22 -8 -24 -63 -11 -32 8 -37 7 -35 -8 2 -10 -4 -16
-17 -16 -11 0 -19 6 -17 13 1 7 -8 12 -23 12 -18 0 -25 -5 -25 -19 0 -10 -9
-21 -20 -24 -11 -3 -20 -10 -20 -16 0 -6 9 -11 20 -11 15 0 20 -7 20 -25 0
-22 -3 -25 -24 -19 -18 4 -25 1 -29 -16 -6 -25 -33 -22 -31 4 1 11 -6 16 -22
16 -17 0 -24 6 -24 20 0 13 7 20 20 20 25 0 26 20 1 27 -11 3 -21 13 -24 24
-7 25 -37 25 -37 -1 0 -11 -7 -20 -15 -20 -8 0 -15 8 -15 19 0 14 -6 17 -25
13 -15 -3 -25 -11 -25 -22 0 -10 -7 -17 -16 -16 -9 0 -19 -5 -21 -11 -3 -8 4
-13 16 -13 14 0 21 -6 21 -20 0 -15 -7 -20 -25 -20 -15 0 -25 -6 -25 -14 0
-24 -31 -29 -37 -6 -5 18 -11 20 -54 14 -41 -6 -49 -4 -49 10 0 9 -7 16 -15
16 -8 0 -15 -7 -15 -15 0 -8 -9 -15 -20 -15 -19 0 -20 -7 -20 -104 0 -85 3
-105 16 -110 23 -9 24 -8 24 14 0 25 28 27 38 3 4 -11 18 -18 34 -18 24 -1 26
2 21 27 -5 28 -5 28 51 28 49 0 56 -2 56 -20 0 -16 -7 -20 -30 -20 -23 0 -30
-4 -30 -20 0 -16 7 -20 30 -20 23 0 30 -4 30 -20 0 -16 -7 -20 -30 -20 -23 0
-30 -4 -30 -20 0 -16 7 -20 30 -20 23 0 30 -4 30 -20 0 -18 -7 -20 -56 -20
-49 0 -56 2 -52 18 4 14 -1 18 -23 20 -23 2 -29 -2 -29 -18 0 -26 -30 -26 -37
1 -4 14 -12 19 -27 17 -16 -2 -21 -10 -20 -33 1 -16 2 -42 3 -57 1 -21 6 -28
21 -28 14 0 20 6 18 18 -2 11 4 18 20 20 16 3 22 -2 22 -16 0 -15 5 -18 25
-14 20 3 25 0 25 -17 0 -12 -6 -21 -15 -21 -8 0 -15 -7 -15 -15 0 -8 8 -15 18
-15 13 0 18 -7 18 -22 -1 -17 5 -24 23 -26 13 -2 21 1 17 6 -8 13 20 36 34 27
5 -3 10 -13 10 -21 0 -11 6 -13 20 -9 16 5 20 2 20 -15 0 -15 -5 -20 -14 -17
-8 3 -17 -1 -20 -8 -6 -17 9 -29 24 -20 6 4 10 -5 10 -19 0 -37 29 -34 36 3 7
35 33 61 63 64 11 1 21 5 21 9 0 4 11 8 24 8 15 0 26 7 29 20 7 26 27 26 34 0
5 -20 13 -20 76 -3 12 3 17 -1 17 -16 0 -27 20 -27 27 -1 4 15 11 18 29 14 17
-4 24 -2 24 9 0 8 -9 17 -20 20 -25 7 -26 27 -1 34 11 3 21 13 24 24 7 25 37
25 37 -1 0 -11 5 -20 10 -20 6 0 10 10 10 21 0 17 4 20 23 15 12 -3 28 -6 35
-6 6 0 12 -9 12 -20 0 -12 -7 -20 -16 -20 -9 0 -14 -6 -11 -12 2 -7 10 -13 18
-13 8 0 13 -8 11 -19 -3 -15 1 -17 22 -12 22 5 26 3 26 -14 0 -11 7 -20 15
-20 8 0 15 7 15 15 0 10 10 15 26 15 22 0 25 -4 21 -21 -4 -14 -2 -19 8 -15 7
2 16 -2 19 -10 10 -26 7 -34 -14 -34 -22 0 -25 -7 -11 -29 5 -8 16 -11 31 -6
19 6 21 4 15 -14 -5 -15 -2 -21 9 -21 10 0 16 9 16 21 0 19 4 20 50 14 46 -6
50 -5 50 14 0 27 30 28 37 1 7 -26 38 -22 38 5 0 14 6 19 19 17 12 -2 17 2 14
15 -2 10 -9 18 -16 18 -6 0 -12 3 -12 8 0 4 0 12 0 17 0 6 11 10 25 10 16 0
25 6 25 15 0 8 9 15 20 15 13 0 20 -7 20 -19 0 -14 5 -18 21 -14 14 4 19 12
16 24 -4 14 0 19 14 19 25 0 24 26 -1 33 -22 6 -18 37 5 37 7 0 15 9 18 20 3
11 12 20 21 20 9 0 16 -8 16 -20 0 -16 7 -20 30 -20 l30 0 0 165 c0 94 -4 165
-9 165 -5 0 -17 3 -25 6 -12 5 -15 2 -10 -11 4 -10 1 -21 -7 -25 -17 -11 -29
-3 -29 20 0 14 -5 17 -21 13 -12 -4 -25 0 -30 8 -13 21 -11 26 11 32 11 3 20
10 20 16 0 6 -9 11 -20 11 -15 0 -20 7 -20 25 0 31 -35 35 -43 5 -7 -26 -27
-26 -34 0 -7 28 -38 21 -37 -8 0 -15 -5 -22 -18 -22 -10 0 -18 -7 -18 -15 0
-9 6 -15 13 -13 13 3 17 -3 17 -27 0 -8 -9 -15 -20 -15 -11 0 -20 -7 -20 -15
0 -8 -9 -15 -20 -15 -11 0 -20 7 -20 15 0 9 -9 15 -24 15 -15 0 -26 7 -29 20
-4 15 0 20 14 20 10 0 19 7 19 15 0 8 -9 15 -20 15 -13 0 -20 7 -20 20 0 13
-7 20 -19 20 -11 0 -18 -6 -17 -16 2 -26 -25 -29 -31 -4 -6 22 -14 22 -75 4
-13 -4 -18 0 -18 15 0 12 -7 21 -15 21 -9 0 -15 -9 -15 -21 0 -15 -4 -19 -16
-15 -9 3 -22 6 -30 6 -8 0 -14 10 -14 25 0 18 5 25 20 25 11 0 20 7 20 15 0 8
-9 15 -20 15 -11 0 -20 7 -20 15 0 8 -8 15 -19 15 -10 0 -21 9 -24 20 -3 11
-10 20 -16 20 -6 0 -11 -9 -11 -20z m237 -168 c7 -5 -4 -8 -27 -7 -22 0 -40 3
-40 8 0 9 52 9 67 -1z m-83 -31 c-5 -21 0 -34 17 -50 12 -11 19 -21 14 -21
-16 0 -45 33 -45 51 0 19 10 49 16 49 2 0 1 -13 -2 -29z m34 -5 c-7 -8 -15
-12 -17 -11 -5 6 10 25 20 25 5 0 4 -6 -3 -14z m52 -22 c0 -15 -30 -47 -38
-39 -3 3 3 12 14 19 17 13 18 17 5 38 -13 21 -13 22 2 9 10 -7 17 -19 17 -27z
m17 -1 c-3 -10 -5 -4 -5 12 0 17 2 24 5 18 2 -7 2 -21 0 -30z m-640 -85 c7
-24 19 -23 26 2 3 14 14 20 31 20 l26 0 -24 -48 c-21 -42 -23 -52 -13 -73 38
-75 38 -79 12 -79 -15 0 -26 7 -30 20 -3 11 -10 20 -15 20 -5 0 -12 -9 -15
-20 -4 -13 -15 -20 -30 -20 l-24 0 19 46 c25 57 25 66 0 113 -10 21 -17 41
-14 44 11 10 47 -7 51 -25z m952 23 c16 -11 7 -43 -11 -40 -36 4 -39 -1 -36
-63 3 -59 5 -63 27 -63 28 0 40 -23 20 -36 -19 -12 -71 -1 -86 19 -8 9 -13 44
-13 82 0 38 5 73 13 82 20 26 61 35 86 19z m-750 -15 c7 -8 11 -34 9 -58 -3
-39 -6 -44 -35 -53 -29 -8 -33 -14 -33 -42 0 -29 -3 -33 -25 -33 l-25 0 0 100
0 100 49 0 c30 0 53 -5 60 -14z m131 -6 c0 -16 -7 -20 -30 -20 -23 0 -30 -4
-30 -20 0 -16 7 -20 30 -20 23 0 30 -4 30 -20 0 -16 -7 -20 -30 -20 -23 0 -30
-4 -30 -20 0 -16 7 -20 30 -20 23 0 30 -4 30 -20 0 -17 -7 -20 -50 -20 l-50 0
0 100 0 100 50 0 c43 0 50 -3 50 -20z m140 1 c14 -27 13 -64 -4 -86 -12 -17
-12 -23 0 -47 19 -38 18 -48 -8 -48 -17 0 -28 10 -40 38 l-16 37 -1 -37 c-1
-34 -4 -38 -26 -38 l-25 0 0 100 0 100 55 0 c43 0 56 -4 65 -19z m80 -81 l0
-100 -25 0 -25 0 0 100 0 100 25 0 25 0 0 -100z m130 80 c0 -16 -7 -20 -30
-20 -23 0 -30 -4 -30 -20 0 -15 7 -20 25 -20 18 0 25 -5 25 -20 0 -15 -7 -20
-25 -20 -37 0 -35 -38 2 -42 17 -2 29 -10 31 -20 3 -15 -5 -18 -52 -18 l-56 0
0 100 0 100 55 0 c48 0 55 -2 55 -20z m85 -32 l24 -53 0 53 c1 45 4 52 21 52
19 0 20 -7 20 -100 0 -98 0 -100 -23 -100 -18 0 -28 11 -44 48 l-21 47 -1 -47
c-1 -41 -4 -48 -21 -48 -12 0 -20 7 -21 18 -4 70 -4 159 -1 170 2 6 13 12 24
12 13 0 26 -15 43 -52z m315 32 c0 -16 -7 -20 -30 -20 -23 0 -30 -4 -30 -20 0
-16 7 -20 30 -20 23 0 30 -4 30 -20 0 -16 -7 -20 -30 -20 -23 0 -30 -4 -30
-20 0 -16 7 -20 30 -20 23 0 30 -4 30 -20 0 -17 -7 -20 -49 -20 -27 0 -51 4
-53 10 -1 5 -2 50 0 100 l3 90 50 0 c42 0 49 -3 49 -20z"/>
<path d="M867 1255 c-3 -20 -1 -25 12 -23 9 2 17 13 19 26 5 31 -24 29 -31 -3z"/>
<path d="M1130 1255 c0 -16 6 -25 15 -25 9 0 15 9 15 25 0 16 -6 25 -15 25 -9
0 -15 -9 -15 -25z"/>
<path d="M510 1215 c0 -8 9 -15 20 -15 11 0 20 7 20 15 0 8 -9 15 -20 15 -11
0 -20 -7 -20 -15z"/>
<path d="M742 894 c-13 -24 8 -64 34 -64 16 0 21 6 22 30 0 17 -3 30 -7 30
-15 0 -29 -23 -24 -39 4 -13 3 -13 -5 -2 -7 10 -6 20 1 33 15 22 25 23 49 1
16 -14 18 -14 18 -1 0 28 -73 38 -88 12z"/>
<path d="M1195 810 c5 -16 2 -20 -15 -20 -13 0 -20 -5 -17 -12 2 -7 12 -12 20
-12 13 1 15 -4 11 -22 -5 -20 -2 -24 15 -24 12 0 20 5 19 12 -2 6 5 14 15 16
12 2 17 -3 17 -17 0 -12 6 -21 15 -21 9 0 15 9 15 25 0 16 6 25 15 25 8 0 15
7 15 15 0 9 -6 12 -15 9 -11 -5 -15 1 -15 18 0 15 -6 25 -15 25 -8 0 -15 -6
-15 -14 0 -7 -9 -13 -20 -13 -11 0 -20 7 -20 15 0 8 -7 15 -16 15 -11 0 -14
-6 -9 -20z"/>
<path d="M1785 809 c38 -63 57 -89 66 -89 11 0 -44 84 -63 96 -7 5 -8 2 -3 -7z"/>
<path d="M1517 743 c-9 -14 28 -78 47 -81 31 -6 37 12 13 38 -32 36 -55 52
-60 43z"/>
<path d="M1360 650 c0 -5 5 -10 11 -10 5 0 7 5 4 10 -3 6 -8 10 -11 10 -2 0
-4 -4 -4 -10z"/>
<path d="M1447 593 c5 -12 3 -14 -8 -8 -12 8 -12 6 0 -9 8 -9 22 -21 32 -27
15 -7 17 -6 13 6 -4 8 -10 15 -15 15 -4 0 -6 6 -3 14 3 7 -2 16 -10 19 -11 4
-13 1 -9 -10z"/>
<path d="M1591 400 c27 -8 75 -36 97 -57 20 -19 23 -16 11 11 -11 23 -86 57
-121 55 -7 0 -1 -4 13 -9z"/>
<path d="M1476 371 c-3 -5 1 -11 9 -15 8 -3 15 -1 15 4 0 13 -18 22 -24 11z"/>
<path d="M1520 341 c0 -8 50 -34 56 -29 1 2 -11 11 -27 20 -16 9 -29 14 -29 9z"/>
<path d="M1753 244 c7 -7 88 -32 110 -34 4 0 7 4 7 9 0 5 -17 11 -37 15 -21 3
-49 9 -63 12 -14 4 -21 3 -17 -2z"/>
<path d="M2117 169 c7 -7 15 -10 18 -7 3 3 -2 9 -12 12 -14 6 -15 5 -6 -5z"/>
<path d="M187 79 c7 -7 15 -10 18 -7 3 3 -2 9 -12 12 -14 6 -15 5 -6 -5z"/>
</g>
</svg>
